<?xml version="1.0" standalone="no"?>
<!DOCTYPE svg PUBLIC "-//W3C//DTD SVG 20010904//EN"
 "http://www.w3.org/TR/2001/REC-SVG-20010904/DTD/svg10.dtd">
<svg version="1.0" xmlns="http://www.w3.org/2000/svg"
 width="611.000000pt" height="408.000000pt" viewBox="0 0 611.000000 408.000000"
 preserveAspectRatio="xMidYMid meet">

<g transform="translate(0.000000,408.000000) scale(0.100000,-0.100000)"
fill="#000000" stroke="none">
<path d="M2757 2903 c-4 -3 -7 -17 -7 -30 0 -16 6 -23 20 -23 16 0 20 7 20 30
0 28 -17 40 -33 23z"/>
<path d="M2821 2753 c0 -16 4 -37 9 -48 6 -15 9 -8 9 28 1 26 -3 47 -9 47 -5
0 -10 -12 -9 -27z"/>
<path d="M2813 2493 c-10 -3 -13 -43 -13 -149 0 -121 2 -144 15 -144 13 0 15
23 15 150 0 83 -1 150 -2 149 -2 0 -9 -3 -15 -6z"/>
<path d="M3354 2330 c0 -63 1 -89 3 -57 2 31 2 83 0 115 -2 31 -3 5 -3 -58z"/>
<path d="M2551 2244 c0 -11 3 -14 6 -6 3 7 2 16 -1 19 -3 4 -6 -2 -5 -13z"/>
<path d="M1850 1704 c0 -5 14 -45 31 -89 17 -44 51 -136 74 -205 63 -179 94
-258 95 -237 0 11 -6 33 -14 50 -8 18 -29 75 -46 127 -85 251 -140 391 -140
354z"/>
<path d="M1882 1702 c2 -4 23 -62 47 -127 24 -66 61 -167 82 -225 21 -58 38
-97 39 -88 0 16 -36 121 -122 361 -18 48 -36 87 -41 87 -5 0 -7 -4 -5 -8z"/>
<path d="M1920 1704 c0 -8 100 -293 116 -329 28 -64 12 -1 -27 107 -22 62 -44
127 -49 143 -11 43 -29 85 -35 85 -3 0 -5 -3 -5 -6z"/>
<path d="M1999 1663 c10 -27 24 -65 31 -86 6 -21 14 -36 17 -34 6 7 -50 167
-59 167 -4 0 1 -21 11 -47z"/>
<path d="M1966 1672 c8 -43 83 -242 84 -221 0 8 -20 69 -45 135 -25 65 -43
104 -39 86z"/>
<path d="M1840 665 l0 -56 88 3 c49 2 87 7 87 13 0 6 4 16 8 23 5 6 4 12 -1
12 -10 0 -9 30 2 48 5 9 -15 12 -88 12 l-96 0 0 -55z"/>
</g>
</svg>
